<svg width="39" height="39" viewBox="0 0 39 39" fill="none" xmlns="http://www.w3.org/2000/svg">
<path d="M21.015 8.64037L10.594 19.4648C10.4043 19.6707 10.2555 19.9134 10.1563 20.1792C9.94789 20.7063 9.94789 21.2974 10.1563 21.8245C10.2555 22.0902 10.4043 22.333 10.594 22.5389L21.015 33.3633C21.2094 33.5652 21.44 33.7253 21.694 33.8345C21.9479 33.9438 22.22 34 22.4948 34C23.0498 34 23.5821 33.771 23.9746 33.3633C24.367 32.9557 24.5875 32.4028 24.5875 31.8263C24.5875 31.2497 24.367 30.6968 23.9746 30.2892L17.0967 23.1667L32.9158 23.1667C33.4686 23.1667 33.9987 22.9386 34.3896 22.5327C34.7804 22.1267 35 21.576 35 21.0018C35 20.4277 34.7804 19.877 34.3896 19.471C33.9987 19.0651 33.4686 18.837 32.9158 18.837L17.0967 18.837L23.9746 11.7145C24.1699 11.5132 24.325 11.2738 24.4308 11.01C24.5366 10.7462 24.5911 10.4632 24.5911 10.1774C24.5911 9.89165 24.5366 9.60868 24.4308 9.34487C24.325 9.08106 24.1699 8.84163 23.9746 8.64037C23.7808 8.43746 23.5503 8.2764 23.2963 8.16649C23.0424 8.05659 22.7699 8 22.4948 8C22.2197 8 21.9472 8.05659 21.6933 8.16649C21.4393 8.2764 21.2088 8.43746 21.015 8.64037Z" fill="#007D5F"/>
</svg>
