<svg width="40" height="40" viewBox="0 0 40 40" fill="none" xmlns="http://www.w3.org/2000/svg">
<path d="M6 8C5.20435 8 4.44129 8.31607 3.87868 8.87868C3.31607 9.44129 3 10.2044 3 11V15C3 15.7956 3.31607 16.5587 3.87868 17.1213C4.44129 17.6839 5.20435 18 6 18H10C10.7956 18 11.5587 17.6839 12.1213 17.1213C12.6839 16.5587 13 15.7956 13 15V11C13 10.2044 12.6839 9.44129 12.1213 8.87868C11.5587 8.31607 10.7956 8 10 8H6ZM5 11C5 10.7348 5.10536 10.4804 5.29289 10.2929C5.48043 10.1054 5.73478 10 6 10H10C10.2652 10 10.5196 10.1054 10.7071 10.2929C10.8946 10.4804 11 10.7348 11 11V15C11 15.2652 10.8946 15.5196 10.7071 15.7071C10.5196 15.8946 10.2652 16 10 16H6C5.73478 16 5.48043 15.8946 5.29289 15.7071C5.10536 15.5196 5 15.2652 5 15V11ZM6 20C5.20435 20 4.44129 20.3161 3.87868 20.8787C3.31607 21.4413 3 22.2044 3 23V27C3 27.7956 3.31607 28.5587 3.87868 29.1213C4.44129 29.6839 5.20435 30 6 30H10C10.7956 30 11.5587 29.6839 12.1213 29.1213C12.6839 28.5587 13 27.7956 13 27V23C13 22.2044 12.6839 21.4413 12.1213 20.8787C11.5587 20.3161 10.7956 20 10 20H6ZM5 23C5 22.7348 5.10536 22.4804 5.29289 22.2929C5.48043 22.1054 5.73478 22 6 22H10C10.2652 22 10.5196 22.1054 10.7071 22.2929C10.8946 22.4804 11 22.7348 11 23V27C11 27.2652 10.8946 27.5196 10.7071 27.7071C10.5196 27.8946 10.2652 28 10 28H6C5.73478 28 5.48043 27.8946 5.29289 27.7071C5.10536 27.5196 5 27.2652 5 27V23ZM15 11C15 10.2044 15.3161 9.44129 15.8787 8.87868C16.4413 8.31607 17.2044 8 18 8H22C22.7956 8 23.5587 8.31607 24.1213 8.87868C24.6839 9.44129 25 10.2044 25 11V15C25 15.7956 24.6839 16.5587 24.1213 17.1213C23.5587 17.6839 22.7956 18 22 18H18C17.2044 18 16.4413 17.6839 15.8787 17.1213C15.3161 16.5587 15 15.7956 15 15V11ZM18 10C17.7348 10 17.4804 10.1054 17.2929 10.2929C17.1054 10.4804 17 10.7348 17 11V15C17 15.2652 17.1054 15.5196 17.2929 15.7071C17.4804 15.8946 17.7348 16 18 16H22C22.2652 16 22.5196 15.8946 22.7071 15.7071C22.8946 15.5196 23 15.2652 23 15V11C23 10.7348 22.8946 10.4804 22.7071 10.2929C22.5196 10.1054 22.2652 10 22 10H18ZM18 20C17.2044 20 16.4413 20.3161 15.8787 20.8787C15.3161 21.4413 15 22.2044 15 23V27C15 27.7956 15.3161 28.5587 15.8787 29.1213C16.4413 29.6839 17.2044 30 18 30H22C22.7956 30 23.5587 29.6839 24.1213 29.1213C24.6839 28.5587 25 27.7956 25 27V23C25 22.2044 24.6839 21.4413 24.1213 20.8787C23.5587 20.3161 22.7956 20 22 20H18ZM17 23C17 22.7348 17.1054 22.4804 17.2929 22.2929C17.4804 22.1054 17.7348 22 18 22H22C22.2652 22 22.5196 22.1054 22.7071 22.2929C22.8946 22.4804 23 22.7348 23 23V27C23 27.2652 22.8946 27.5196 22.7071 27.7071C22.5196 27.8946 22.2652 28 22 28H18C17.7348 28 17.4804 27.8946 17.2929 27.7071C17.1054 27.5196 17 27.2652 17 27V23ZM27 11C27 10.2044 27.3161 9.44129 27.8787 8.87868C28.4413 8.31607 29.2044 8 30 8H34C34.7956 8 35.5587 8.31607 36.1213 8.87868C36.6839 9.44129 37 10.2044 37 11V15C37 15.7956 36.6839 16.5587 36.1213 17.1213C35.5587 17.6839 34.7956 18 34 18H30C29.2044 18 28.4413 17.6839 27.8787 17.1213C27.3161 16.5587 27 15.7956 27 15V11ZM30 10C29.7348 10 29.4804 10.1054 29.2929 10.2929C29.1054 10.4804 29 10.7348 29 11V15C29 15.2652 29.1054 15.5196 29.2929 15.7071C29.4804 15.8946 29.7348 16 30 16H34C34.2652 16 34.5196 15.8946 34.7071 15.7071C34.8946 15.5196 35 15.2652 35 15V11C35 10.7348 34.8946 10.4804 34.7071 10.2929C34.5196 10.1054 34.2652 10 34 10H30ZM30 20C29.2044 20 28.4413 20.3161 27.8787 20.8787C27.3161 21.4413 27 22.2044 27 23V27C27 27.7956 27.3161 28.5587 27.8787 29.1213C28.4413 29.6839 29.2044 30 30 30H34C34.7956 30 35.5587 29.6839 36.1213 29.1213C36.6839 28.5587 37 27.7956 37 27V23C37 22.2044 36.6839 21.4413 36.1213 20.8787C35.5587 20.3161 34.7956 20 34 20H30ZM29 23C29 22.7348 29.1054 22.4804 29.2929 22.2929C29.4804 22.1054 29.7348 22 30 22H34C34.2652 22 34.5196 22.1054 34.7071 22.2929C34.8946 22.4804 35 22.7348 35 23V27C35 27.2652 34.8946 27.5196 34.7071 27.7071C34.5196 27.8946 34.2652 28 34 28H30C29.7348 28 29.4804 27.8946 29.2929 27.7071C29.1054 27.5196 29 27.2652 29 27V23Z" fill="#434343"/>
</svg>
