<svg width="272" height="36" viewBox="0 0 272 36" fill="none" xmlns="http://www.w3.org/2000/svg">
<path d="M8.408 35.48C5.88 35.48 3.944 34.76 2.6 33.32C1.288 31.88 0.632 29.848 0.632 27.224V9.176C0.632 6.552 1.288 4.52 2.6 3.08C3.944 1.64 5.88 0.919998 8.408 0.919998C10.936 0.919998 12.856 1.64 14.168 3.08C15.512 4.52 16.184 6.552 16.184 9.176V12.728H11.192V8.84C11.192 6.76 10.312 5.72 8.552 5.72C6.792 5.72 5.912 6.76 5.912 8.84V27.608C5.912 29.656 6.792 30.68 8.552 30.68C10.312 30.68 11.192 29.656 11.192 27.608V22.472H16.184V27.224C16.184 29.848 15.512 31.88 14.168 33.32C12.856 34.76 10.936 35.48 8.408 35.48ZM27.0688 35.48C24.4768 35.48 22.4928 34.744 21.1168 33.272C19.7408 31.8 19.0527 29.72 19.0527 27.032V9.368C19.0527 6.68 19.7408 4.6 21.1168 3.128C22.4928 1.656 24.4768 0.919998 27.0688 0.919998C29.6608 0.919998 31.6448 1.656 33.0208 3.128C34.3968 4.6 35.0848 6.68 35.0848 9.368V27.032C35.0848 29.72 34.3968 31.8 33.0208 33.272C31.6448 34.744 29.6608 35.48 27.0688 35.48ZM27.0688 30.68C28.8928 30.68 29.8047 29.576 29.8047 27.368V9.032C29.8047 6.824 28.8928 5.72 27.0688 5.72C25.2448 5.72 24.3328 6.824 24.3328 9.032V27.368C24.3328 29.576 25.2448 30.68 27.0688 30.68ZM38.6555 1.4H43.9355V30.2H52.6235V35H38.6555V1.4ZM55.1555 1.4H60.4355V30.2H69.1235V35H55.1555V1.4ZM71.6555 1.4H86.0555V6.2H76.9355V15.08H84.1835V19.88H76.9355V30.2H86.0555V35H71.6555V1.4ZM96.533 35.48C94.005 35.48 92.069 34.76 90.725 33.32C89.413 31.88 88.757 29.848 88.757 27.224V9.176C88.757 6.552 89.413 4.52 90.725 3.08C92.069 1.64 94.005 0.919998 96.533 0.919998C99.061 0.919998 100.981 1.64 102.293 3.08C103.637 4.52 104.309 6.552 104.309 9.176V12.728H99.317V8.84C99.317 6.76 98.437 5.72 96.677 5.72C94.917 5.72 94.037 6.76 94.037 8.84V27.608C94.037 29.656 94.917 30.68 96.677 30.68C98.437 30.68 99.317 29.656 99.317 27.608V22.472H104.309V27.224C104.309 29.848 103.637 31.88 102.293 33.32C100.981 34.76 99.061 35.48 96.533 35.48ZM111.596 6.2H106.076V1.4H122.396V6.2H116.876V35H111.596V6.2ZM137.296 17.816L131.488 1.4H137.056L140.608 12.248H140.704L144.352 1.4H149.344L143.536 17.816L149.632 35H144.064L140.224 23.288H140.128L136.192 35H131.2L137.296 17.816ZM167.267 35.48C164.739 35.48 162.803 34.76 161.459 33.32C160.147 31.88 159.491 29.848 159.491 27.224V9.176C159.491 6.552 160.147 4.52 161.459 3.08C162.803 1.64 164.739 0.919998 167.267 0.919998C169.795 0.919998 171.715 1.64 173.027 3.08C174.371 4.52 175.043 6.552 175.043 9.176V12.728H170.051V8.84C170.051 6.76 169.171 5.72 167.411 5.72C165.651 5.72 164.771 6.76 164.771 8.84V27.608C164.771 29.656 165.651 30.68 167.411 30.68C169.171 30.68 170.051 29.656 170.051 27.608V22.472H175.043V27.224C175.043 29.848 174.371 31.88 173.027 33.32C171.715 34.76 169.795 35.48 167.267 35.48ZM178.202 1.4H183.482V15.08H189.146V1.4H194.426V35H189.146V19.88H183.482V35H178.202V1.4ZM202.439 1.4H209.591L215.063 35H209.783L208.823 28.328V28.424H202.823L201.863 35H196.967L202.439 1.4ZM208.199 23.864L205.847 7.256H205.751L203.447 23.864H208.199ZM217.624 1.4H224.248L229.384 21.512H229.48V1.4H234.184V35H228.76L222.424 10.472H222.328V35H217.624V1.4ZM245.597 35.48C243.037 35.48 241.085 34.76 239.741 33.32C238.397 31.848 237.725 29.752 237.725 27.032V9.368C237.725 6.648 238.397 4.568 239.741 3.128C241.085 1.656 243.037 0.919998 245.597 0.919998C248.157 0.919998 250.109 1.656 251.453 3.128C252.797 4.568 253.469 6.648 253.469 9.368V12.248H248.477V9.032C248.477 6.824 247.565 5.72 245.741 5.72C243.917 5.72 243.005 6.824 243.005 9.032V27.416C243.005 29.592 243.917 30.68 245.741 30.68C247.565 30.68 248.477 29.592 248.477 27.416V20.84H245.837V16.04H253.469V27.032C253.469 29.752 252.797 31.848 251.453 33.32C250.109 34.76 248.157 35.48 245.597 35.48ZM256.859 1.4H271.259V6.2H262.139V15.08H269.387V19.88H262.139V30.2H271.259V35H256.859V1.4Z" fill="black"/>
</svg>
