<svg width="24" height="22" viewBox="0 0 24 22" fill="none" xmlns="http://www.w3.org/2000/svg">
<g filter="url(#filter0_d_52_150)">
<path d="M16.36 12C16.44 11.34 16.5 10.68 16.5 10C16.5 9.32 16.44 8.66 16.36 8H19.74C19.9 8.64 20 9.31 20 10C20 10.69 19.9 11.36 19.74 12M14.59 17.56C15.19 16.45 15.65 15.25 15.97 14H18.92C17.9512 15.6683 16.4141 16.932 14.59 17.56ZM14.34 12H9.66C9.56 11.34 9.5 10.68 9.5 10C9.5 9.32 9.56 8.65 9.66 8H14.34C14.43 8.65 14.5 9.32 14.5 10C14.5 10.68 14.43 11.34 14.34 12ZM12 17.96C11.17 16.76 10.5 15.43 10.09 14H13.91C13.5 15.43 12.83 16.76 12 17.96ZM8 6H5.08C6.03886 4.32721 7.5748 3.06149 9.4 2.44C8.8 3.55 8.35 4.75 8 6ZM5.08 14H8C8.35 15.25 8.8 16.45 9.4 17.56C7.57862 16.9317 6.04485 15.6677 5.08 14ZM4.26 12C4.1 11.36 4 10.69 4 10C4 9.31 4.1 8.64 4.26 8H7.64C7.56 8.66 7.5 9.32 7.5 10C7.5 10.68 7.56 11.34 7.64 12M12 2.03C12.83 3.23 13.5 4.57 13.91 6H10.09C10.5 4.57 11.17 3.23 12 2.03ZM18.92 6H15.97C15.657 4.76146 15.1936 3.5659 14.59 2.44C16.43 3.07 17.96 4.34 18.92 6ZM12 0C6.47 0 2 4.5 2 10C2 12.6522 3.05357 15.1957 4.92893 17.0711C5.85752 17.9997 6.95991 18.7362 8.17317 19.2388C9.38642 19.7413 10.6868 20 12 20C14.6522 20 17.1957 18.9464 19.0711 17.0711C20.9464 15.1957 22 12.6522 22 10C22 8.68678 21.7413 7.38642 21.2388 6.17317C20.7362 4.95991 19.9997 3.85752 19.0711 2.92893C18.1425 2.00035 17.0401 1.26375 15.8268 0.761205C14.6136 0.258658 13.3132 0 12 0Z" fill="#434343"/>
</g>
<defs>
<filter id="filter0_d_52_150" x="-2" y="0" width="28" height="28" filterUnits="userSpaceOnUse" color-interpolation-filters="sRGB">
<feFlood flood-opacity="0" result="BackgroundImageFix"/>
<feColorMatrix in="SourceAlpha" type="matrix" values="0 0 0 0 0 0 0 0 0 0 0 0 0 0 0 0 0 0 127 0" result="hardAlpha"/>
<feOffset dy="4"/>
<feGaussianBlur stdDeviation="2"/>
<feComposite in2="hardAlpha" operator="out"/>
<feColorMatrix type="matrix" values="0 0 0 0 0 0 0 0 0 0 0 0 0 0 0 0 0 0 0.25 0"/>
<feBlend mode="normal" in2="BackgroundImageFix" result="effect1_dropShadow_52_150"/>
<feBlend mode="normal" in="SourceGraphic" in2="effect1_dropShadow_52_150" result="shape"/>
</filter>
</defs>
</svg>
