<svg width="30" height="30" viewBox="0 0 30 30" fill="none" xmlns="http://www.w3.org/2000/svg">
<g opacity="0.2">
<path d="M12.5 23.75C12.1458 23.75 11.8488 23.63 11.6088 23.39C11.3688 23.15 11.2492 22.8533 11.25 22.5C11.25 22.1458 11.37 21.8488 11.61 21.6088C11.85 21.3688 12.1467 21.2492 12.5 21.25H25C25.3542 21.25 25.6512 21.37 25.8912 21.61C26.1313 21.85 26.2508 22.1467 26.25 22.5C26.25 22.8542 26.13 23.1513 25.89 23.3913C25.65 23.6313 25.3533 23.7508 25 23.75H12.5ZM12.5 16.25C12.1458 16.25 11.8488 16.13 11.6088 15.89C11.3688 15.65 11.2492 15.3533 11.25 15C11.25 14.6458 11.37 14.3488 11.61 14.1088C11.85 13.8688 12.1467 13.7492 12.5 13.75H25C25.3542 13.75 25.6512 13.87 25.8912 14.11C26.1313 14.35 26.2508 14.6467 26.25 15C26.25 15.3542 26.13 15.6513 25.89 15.8913C25.65 16.1313 25.3533 16.2508 25 16.25H12.5ZM12.5 8.75C12.1458 8.75 11.8488 8.63 11.6088 8.39C11.3688 8.15 11.2492 7.85334 11.25 7.5C11.25 7.14584 11.37 6.84875 11.61 6.60875C11.85 6.36875 12.1467 6.24917 12.5 6.25H25C25.3542 6.25 25.6512 6.37 25.8912 6.61C26.1313 6.85 26.2508 7.14667 26.25 7.5C26.25 7.85417 26.13 8.15125 25.89 8.39125C25.65 8.63125 25.3533 8.75084 25 8.75H12.5ZM6.25 25C5.5625 25 4.97375 24.755 4.48375 24.265C3.99375 23.775 3.74917 23.1867 3.75 22.5C3.75 21.8125 3.995 21.2238 4.485 20.7338C4.975 20.2438 5.56334 19.9992 6.25 20C6.9375 20 7.52625 20.245 8.01625 20.735C8.50625 21.225 8.75084 21.8133 8.75 22.5C8.75 23.1875 8.505 23.7763 8.015 24.2663C7.525 24.7563 6.93667 25.0008 6.25 25ZM6.25 17.5C5.5625 17.5 4.97375 17.255 4.48375 16.765C3.99375 16.275 3.74917 15.6867 3.75 15C3.75 14.3125 3.995 13.7238 4.485 13.2338C4.975 12.7438 5.56334 12.4992 6.25 12.5C6.9375 12.5 7.52625 12.745 8.01625 13.235C8.50625 13.725 8.75084 14.3133 8.75 15C8.75 15.6875 8.505 16.2763 8.015 16.7663C7.525 17.2563 6.93667 17.5008 6.25 17.5ZM6.25 10C5.5625 10 4.97375 9.755 4.48375 9.265C3.99375 8.775 3.74917 8.18667 3.75 7.5C3.75 6.8125 3.995 6.22375 4.485 5.73375C4.975 5.24375 5.56334 4.99917 6.25 5C6.9375 5 7.52625 5.245 8.01625 5.735C8.50625 6.225 8.75084 6.81334 8.75 7.5C8.75 8.1875 8.505 8.77625 8.015 9.26625C7.525 9.75625 6.93667 10.0008 6.25 10Z" fill="#434343"/>
</g>
</svg>
