<svg width="18" height="18" viewBox="0 0 18 18" fill="none" xmlns="http://www.w3.org/2000/svg">
<path d="M3.54548 18H14.4546C14.9064 18 15.2727 17.6337 15.2727 17.1818V7.90909C15.2727 7.45724 14.9064 7.09091 14.4546 7.09091H13.6364V4.63636C13.6364 2.07987 11.5565 0 9.00002 0C6.44353 0 4.36366 2.07987 4.36366 4.63636V7.09091H3.54548C3.09362 7.09091 2.72729 7.45724 2.72729 7.90909V17.1818C2.72729 17.6337 3.09362 18 3.54548 18ZM9.8182 12.8174V13.9091C9.8182 14.3609 9.45188 14.7273 9.00002 14.7273C8.54817 14.7273 8.18184 14.3609 8.18184 13.9091V12.8174C7.85086 12.5684 7.63639 12.1725 7.63639 11.7273C7.63639 10.9754 8.24811 10.3636 9.00002 10.3636C9.75193 10.3636 10.3637 10.9754 10.3637 11.7273C10.3637 12.1725 10.1492 12.5684 9.8182 12.8174ZM6.00002 4.63636C6.00002 2.98216 7.34582 1.63636 9.00002 1.63636C10.6542 1.63636 12 2.98216 12 4.63636V7.09091H6.00002V4.63636Z" fill="#434343"/>
</svg>
