<svg width="20" height="20" viewBox="0 0 20 20" fill="none" xmlns="http://www.w3.org/2000/svg">
<path d="M18.4599 3H1.54008C0.691983 3 0 3.69198 0 4.54008V16.4557C0 17.3038 0.691983 17.9958 1.54008 17.9958H18.4599C19.308 17.9958 20 17.3038 20 16.4557V4.54008C20 3.69198 19.308 3 18.4599 3ZM18.2363 4.13924L10.1055 11.0928L1.97468 4.13924H18.2363ZM18.8608 16.4557C18.8608 16.6751 18.6793 16.8565 18.4599 16.8565H1.54008C1.32068 16.8565 1.13924 16.6751 1.13924 16.4557V4.92405L9.73418 12.2743C9.7384 12.2785 9.74684 12.2827 9.75106 12.2869C9.75527 12.2911 9.76371 12.2954 9.76793 12.2996C9.78059 12.308 9.78903 12.3165 9.80169 12.3207C9.80591 12.3249 9.81013 12.3249 9.81435 12.3291C9.83122 12.3376 9.8481 12.346 9.86498 12.3544C9.8692 12.3544 9.87342 12.3587 9.87764 12.3587C9.8903 12.3629 9.90295 12.3713 9.91983 12.3755C9.92405 12.3755 9.93249 12.3797 9.93671 12.3797C9.94937 12.384 9.96203 12.3882 9.97468 12.3882C9.9789 12.3882 9.98734 12.3924 9.99156 12.3924C10.0042 12.3966 10.0211 12.3966 10.0338 12.4008C10.038 12.4008 10.0422 12.4008 10.0464 12.4008C10.0633 12.4008 10.0844 12.4051 10.1013 12.4051C10.1181 12.4051 10.1392 12.4051 10.1561 12.4008C10.1603 12.4008 10.1646 12.4008 10.1688 12.4008C10.1814 12.4008 10.1983 12.3966 10.211 12.3924C10.2152 12.3924 10.2236 12.3882 10.2278 12.3882C10.2405 12.384 10.2532 12.3797 10.2658 12.3797C10.27 12.3797 10.2785 12.3755 10.2827 12.3755C10.2954 12.3713 10.308 12.3671 10.3249 12.3587C10.3291 12.3587 10.3333 12.3544 10.3376 12.3544C10.3544 12.346 10.3713 12.3376 10.3882 12.3291C10.3924 12.3249 10.3966 12.3249 10.4008 12.3207C10.4135 12.3122 10.4219 12.308 10.4346 12.2996C10.4388 12.2954 10.4473 12.2911 10.4515 12.2869C10.4557 12.2827 10.4641 12.2785 10.4684 12.2743L18.8608 5.10549V16.4557Z" fill="#434343"/>
</svg>
