<svg width="24" height="24" viewBox="0 0 24 24" fill="none" xmlns="http://www.w3.org/2000/svg">
<path d="M11.9999 11.0001C12.2651 11.0001 12.5194 11.1055 12.707 11.293C12.8945 11.4805 12.9999 11.7349 12.9999 12.0001C12.9999 12.2653 12.8945 12.5197 12.707 12.7072C12.5194 12.8947 12.2651 13.0001 11.9999 13.0001C11.7346 13.0001 11.4803 12.8947 11.2928 12.7072C11.1052 12.5197 10.9999 12.2653 10.9999 12.0001C10.9999 11.7349 11.1052 11.4805 11.2928 11.293C11.4803 11.1055 11.7346 11.0001 11.9999 11.0001ZM4.21986 4.2201C5.64986 2.7901 8.74986 3.4301 11.9999 5.5601C15.2499 3.4301 18.3499 2.7901 19.7799 4.2201C21.2099 5.6501 20.5699 8.7501 18.4399 12.0001C20.5699 15.2501 21.2099 18.3501 19.7799 19.7801C18.3499 21.2101 15.2499 20.5701 11.9999 18.4401C8.74986 20.5701 5.64986 21.2101 4.21986 19.7801C2.78986 18.3501 3.42986 15.2501 5.55986 12.0001C3.42986 8.7501 2.78986 5.6501 4.21986 4.2201ZM15.5399 8.4601C16.1499 9.0801 16.7099 9.7101 17.2299 10.3401C18.6099 8.2101 19.1099 6.3801 18.3599 5.6401C17.6199 4.8901 15.7899 5.3901 13.6599 6.7701C14.2899 7.2901 14.9199 7.8501 15.5399 8.4601ZM8.45986 15.5401C7.84986 14.9201 7.28986 14.2901 6.76986 13.6601C5.38986 15.7901 4.88986 17.6201 5.63986 18.3601C6.37986 19.1101 8.20986 18.6101 10.3399 17.2301C9.70986 16.7101 9.07986 16.1501 8.45986 15.5401ZM5.63986 5.6401C4.88986 6.3801 5.38986 8.2101 6.76986 10.3401C7.28986 9.7101 7.84986 9.0801 8.45986 8.4601C9.07986 7.8501 9.70986 7.2901 10.3399 6.7701C8.20986 5.3901 6.37986 4.8901 5.63986 5.6401ZM9.87986 14.1201C10.5799 14.8201 11.2999 15.4601 11.9999 16.0301C12.6999 15.4601 13.4199 14.8201 14.1199 14.1201C14.8199 13.4201 15.4599 12.7001 16.0299 12.0001C15.4599 11.3001 14.8199 10.5801 14.1199 9.8801C13.4199 9.1801 12.6999 8.5401 11.9999 7.9701C11.2999 8.5401 10.5799 9.1801 9.87986 9.8801C9.17986 10.5801 8.53986 11.3001 7.96986 12.0001C8.53986 12.7001 9.17986 13.4201 9.87986 14.1201ZM18.3599 18.3601C19.1099 17.6201 18.6099 15.7901 17.2299 13.6601C16.7099 14.2901 16.1499 14.9201 15.5399 15.5401C14.9199 16.1501 14.2899 16.7101 13.6599 17.2301C15.7899 18.6101 17.6199 19.1101 18.3599 18.3601Z" fill="#434343"/>
</svg>
