<svg width="50" height="50" viewBox="0 0 50 50" fill="none" xmlns="http://www.w3.org/2000/svg">
<path d="M12.1272 10.2292C20.248 4.46876 31.8542 4.93959 39.3626 11.3458C47.0022 17.8604 48.0459 28.5083 41.7626 36.1313C35.8417 43.3125 25.1688 45.6792 16.2813 41.975L15.798 41.7646L6.68341 43.7042L6.52716 43.7313L6.298 43.75L6.06258 43.7417L5.97091 43.7313L5.74175 43.6896L5.523 43.6188L5.31467 43.5271L5.15633 43.4396L4.93133 43.2792L4.76258 43.125L4.6105 42.9521L4.50008 42.7958L4.36466 42.5563L4.27716 42.3354L4.21258 42.1L4.1855 41.9438L4.16675 41.7146L4.17508 41.4792L4.1855 41.3875L4.22716 41.1583L4.273 41.0083L6.66883 33.8188L6.623 33.7438C2.01883 25.9375 4.10425 16.2604 11.6459 10.5813L12.1251 10.2313L12.1272 10.2292Z" fill="white"/>
</svg>
