<svg width="18" height="17" viewBox="0 0 18 17" fill="none" xmlns="http://www.w3.org/2000/svg">
<path d="M12 12.0024L8 16.0024H16C17.1 16.0024 18 15.1024 18 14.0024C18 12.9024 17.1 12.0024 16 12.0024H12ZM9.06 3.19244L0.29 11.9624C0.11 12.1424 0 12.4024 0 12.6624V15.0024C0 15.5524 0.45 16.0024 1 16.0024H3.34C3.61 16.0024 3.86 15.8924 4.05 15.7124L12.82 6.94244L9.06 3.19244ZM15.71 4.04244C15.8027 3.94993 15.8763 3.84004 15.9264 3.71907C15.9766 3.59809 16.0024 3.46841 16.0024 3.33744C16.0024 3.20648 15.9766 3.07679 15.9264 2.95582C15.8763 2.83485 15.8027 2.72496 15.71 2.63244L13.37 0.292444C13.2775 0.19974 13.1676 0.126193 13.0466 0.0760114C12.9257 0.02583 12.796 0 12.665 0C12.534 0 12.4043 0.02583 12.2834 0.0760114C12.1624 0.126193 12.0525 0.19974 11.96 0.292444L10.13 2.12244L13.88 5.87244L15.71 4.04244Z" fill="#434343"/>
</svg>
