<svg width="45" height="45" viewBox="0 0 45 45" fill="none" xmlns="http://www.w3.org/2000/svg">
<path d="M41.0625 35.1625L40.6375 34.7875C39.4318 33.7133 38.3764 32.4813 37.5 31.125C36.5428 29.2532 35.9691 27.209 35.8125 25.1125V18.9375C35.8208 15.6445 34.6263 12.4618 32.4534 9.98747C30.2806 7.51309 27.2789 5.91733 24.0125 5.5V3.8875C24.0125 3.44492 23.8367 3.02047 23.5237 2.70752C23.2108 2.39456 22.7863 2.21875 22.3437 2.21875C21.9012 2.21875 21.4767 2.39456 21.1638 2.70752C20.8508 3.02047 20.675 3.44492 20.675 3.8875V5.525C17.4378 5.97241 14.4725 7.57782 12.3282 10.0439C10.1839 12.5099 9.00591 15.6696 9.0125 18.9375V25.1125C8.85594 27.209 8.28222 29.2532 7.325 31.125C6.4636 32.4779 5.42524 33.7097 4.2375 34.7875L3.8125 35.1625V38.6875H41.0625V35.1625Z" fill="white"/>
<path d="M19.1499 40C19.2595 40.7923 19.6521 41.5183 20.2553 42.0437C20.8584 42.5691 21.6313 42.8586 22.4312 42.8586C23.231 42.8586 24.0039 42.5691 24.607 42.0437C25.2102 41.5183 25.6028 40.7923 25.7124 40H19.1499Z" fill="white"/>
</svg>
