<svg width="24" height="24" viewBox="0 0 24 24" fill="none" xmlns="http://www.w3.org/2000/svg">
<path d="M8 21C7.71667 21 7.479 20.904 7.287 20.712C7.095 20.52 6.99934 20.2827 7 20V18H6C5.71667 18 5.479 17.904 5.287 17.712C5.095 17.52 4.99934 17.2827 5 17C5 16.7167 5.096 16.479 5.288 16.287C5.48 16.095 5.71734 15.9993 6 16H7V14H6C5.71667 14 5.479 13.904 5.287 13.712C5.095 13.52 4.99934 13.2827 5 13C5 12.7167 5.096 12.479 5.288 12.287C5.48 12.095 5.71734 11.9993 6 12H7V4C7 3.71667 7.096 3.479 7.288 3.287C7.48 3.095 7.71734 2.99934 8 3H13.5C15.0333 3 16.3333 3.53334 17.4 4.6C18.4667 5.66667 19 6.96667 19 8.5C19 10.0333 18.4667 11.3333 17.4 12.4C16.3333 13.4667 15.0333 14 13.5 14H9V16H12C12.2833 16 12.521 16.096 12.713 16.288C12.905 16.48 13.0007 16.7173 13 17C13 17.2833 12.904 17.521 12.712 17.713C12.52 17.905 12.2827 18.0007 12 18H9V20C9 20.2833 8.904 20.521 8.712 20.713C8.52 20.905 8.28267 21.0007 8 21ZM9 12H13.5C14.4667 12 15.2917 11.6583 15.975 10.975C16.6583 10.2917 17 9.46667 17 8.5C17 7.53334 16.6583 6.70834 15.975 6.025C15.2917 5.34167 14.4667 5 13.5 5H9V12Z" fill="#434343"/>
</svg>
