<svg width="30" height="30" viewBox="0 0 30 30" fill="none" xmlns="http://www.w3.org/2000/svg">
<path d="M5.5 24.2813C5.08333 24.4479 4.6875 24.4113 4.3125 24.1713C3.9375 23.9313 3.75 23.5825 3.75 23.125V18.4688C3.75 18.1771 3.83333 17.9167 4 17.6875C4.16667 17.4583 4.39583 17.3125 4.6875 17.25L13.75 15L4.6875 12.75C4.39583 12.6875 4.16667 12.5417 4 12.3125C3.83333 12.0833 3.75 11.8229 3.75 11.5313V6.875C3.75 6.41667 3.9375 6.0675 4.3125 5.8275C4.6875 5.5875 5.08333 5.55125 5.5 5.71875L24.75 13.8438C25.2708 14.0729 25.5312 14.4583 25.5312 15C25.5312 15.5417 25.2708 15.9271 24.75 16.1563L5.5 24.2813Z" fill="#007D5F"/>
</svg>
