<svg width="18" height="18" viewBox="0 0 18 18" fill="none" xmlns="http://www.w3.org/2000/svg">
<path d="M12.0832 10.8333C12.2359 10.9028 12.3923 10.9097 12.5523 10.8542C12.7118 10.7986 12.8193 10.6944 12.8748 10.5417C12.9859 10.2917 13.0623 10.0383 13.104 9.78166C13.1457 9.52443 13.1665 9.26388 13.1665 8.99999C13.1665 8.47221 13.0659 7.94777 12.8648 7.42666C12.6632 6.9061 12.3609 6.44443 11.9582 6.04166C11.5554 5.63888 11.1007 5.34027 10.594 5.14582C10.0868 4.95138 9.56928 4.85416 9.0415 4.85416L9.4165 4.47916C9.5415 4.35416 9.60067 4.20832 9.594 4.04166C9.58678 3.87499 9.52067 3.72916 9.39567 3.60416C9.27067 3.47916 9.12484 3.41666 8.95817 3.41666C8.7915 3.41666 8.64567 3.47916 8.52067 3.60416L6.87484 5.22916C6.7915 5.31249 6.74984 5.40971 6.74984 5.52082C6.74984 5.63193 6.7915 5.72916 6.87484 5.81249L8.52067 7.43749C8.64567 7.5486 8.7915 7.60749 8.95817 7.61416C9.12484 7.62138 9.27067 7.56249 9.39567 7.43749C9.52067 7.31249 9.58317 7.16666 9.58317 6.99999C9.58317 6.83332 9.52067 6.68749 9.39567 6.56249L8.9165 6.08332C9.2915 6.08332 9.67345 6.1561 10.0623 6.30166C10.4512 6.44777 10.7846 6.65971 11.0623 6.93749C11.3401 7.21527 11.5521 7.53471 11.6982 7.89582C11.8437 8.25693 11.9165 8.61805 11.9165 8.97916C11.9165 9.14582 11.9062 9.31249 11.8857 9.47916C11.8646 9.64582 11.8193 9.80554 11.7498 9.95832C11.6804 10.1528 11.6771 10.3297 11.7398 10.4892C11.8021 10.6492 11.9165 10.7639 12.0832 10.8333ZM8.604 14.3958C8.729 14.5208 8.87484 14.5833 9.0415 14.5833C9.20817 14.5833 9.354 14.5208 9.479 14.3958L11.1248 12.7708C11.2082 12.6875 11.2498 12.5903 11.2498 12.4792C11.2498 12.368 11.2082 12.2708 11.1248 12.1875L9.479 10.5625C9.354 10.4514 9.20817 10.3922 9.0415 10.385C8.87484 10.3783 8.729 10.4375 8.604 10.5625C8.479 10.6875 8.4165 10.8333 8.4165 11C8.4165 11.1667 8.479 11.3125 8.604 11.4375L9.06234 11.8958C8.67345 11.9097 8.29511 11.8472 7.92734 11.7083C7.559 11.5694 7.229 11.3542 6.93734 11.0625C6.65956 10.7847 6.44762 10.4653 6.3015 10.1042C6.15595 9.74304 6.08317 9.38193 6.08317 9.02082C6.08317 8.84027 6.09373 8.66999 6.11484 8.50999C6.13539 8.35054 6.18039 8.18749 6.24984 8.02082C6.30539 7.86804 6.31234 7.7186 6.27067 7.57249C6.229 7.42693 6.14567 7.31249 6.02067 7.22916C5.854 7.11805 5.67678 7.09027 5.489 7.14582C5.30178 7.20138 5.17345 7.31249 5.104 7.47916C4.99289 7.72916 4.91984 7.97555 4.88484 8.21832C4.85039 8.46166 4.83317 8.72221 4.83317 8.99999C4.83317 9.52777 4.93734 10.0486 5.14567 10.5625C5.354 11.0764 5.65956 11.5347 6.06234 11.9375C6.46512 12.3403 6.9165 12.6425 7.4165 12.8442C7.9165 13.0453 8.43039 13.1528 8.95817 13.1667L8.604 13.5208C8.479 13.6458 8.4165 13.7917 8.4165 13.9583C8.4165 14.125 8.479 14.2708 8.604 14.3958ZM8.99984 17.3333C7.84706 17.3333 6.76373 17.1144 5.74984 16.6767C4.73595 16.2394 3.854 15.6458 3.104 14.8958C2.354 14.1458 1.76039 13.2639 1.32317 12.25C0.885393 11.2361 0.666504 10.1528 0.666504 8.99999C0.666504 7.84721 0.885393 6.76388 1.32317 5.74999C1.76039 4.7361 2.354 3.85416 3.104 3.10416C3.854 2.35416 4.73595 1.76027 5.74984 1.32249C6.76373 0.885268 7.84706 0.666656 8.99984 0.666656C10.1526 0.666656 11.2359 0.885268 12.2498 1.32249C13.2637 1.76027 14.1457 2.35416 14.8957 3.10416C15.6457 3.85416 16.2393 4.7361 16.6765 5.74999C17.1143 6.76388 17.3332 7.84721 17.3332 8.99999C17.3332 10.1528 17.1143 11.2361 16.6765 12.25C16.2393 13.2639 15.6457 14.1458 14.8957 14.8958C14.1457 15.6458 13.2637 16.2394 12.2498 16.6767C11.2359 17.1144 10.1526 17.3333 8.99984 17.3333ZM8.99984 15.6667C10.8471 15.6667 12.4201 15.0175 13.719 13.7192C15.0173 12.4203 15.6665 10.8472 15.6665 8.99999C15.6665 7.15277 15.0173 5.57971 13.719 4.28082C12.4201 2.98249 10.8471 2.33332 8.99984 2.33332C7.15262 2.33332 5.57984 2.98249 4.2815 4.28082C2.98261 5.57971 2.33317 7.15277 2.33317 8.99999C2.33317 10.8472 2.98261 12.4203 4.2815 13.7192C5.57984 15.0175 7.15262 15.6667 8.99984 15.6667Z" fill="#C4CDD5"/>
</svg>
