<svg width="20" height="20" viewBox="0 0 20 20" fill="none" xmlns="http://www.w3.org/2000/svg">
<path d="M13.0832 11.8333C13.2359 11.9028 13.3923 11.9097 13.5523 11.8542C13.7118 11.7986 13.8193 11.6944 13.8748 11.5417C13.9859 11.2917 14.0623 11.0383 14.104 10.7817C14.1457 10.5244 14.1665 10.2639 14.1665 9.99999C14.1665 9.47221 14.0659 8.94777 13.8648 8.42666C13.6632 7.9061 13.3609 7.44443 12.9582 7.04166C12.5554 6.63888 12.1007 6.34027 11.594 6.14582C11.0868 5.95138 10.5693 5.85416 10.0415 5.85416L10.4165 5.47916C10.5415 5.35416 10.6007 5.20832 10.594 5.04166C10.5868 4.87499 10.5207 4.72916 10.3957 4.60416C10.2707 4.47916 10.1248 4.41666 9.95817 4.41666C9.7915 4.41666 9.64567 4.47916 9.52067 4.60416L7.87484 6.22916C7.7915 6.31249 7.74984 6.40971 7.74984 6.52082C7.74984 6.63193 7.7915 6.72916 7.87484 6.81249L9.52067 8.43749C9.64567 8.5486 9.7915 8.60749 9.95817 8.61416C10.1248 8.62138 10.2707 8.56249 10.3957 8.43749C10.5207 8.31249 10.5832 8.16666 10.5832 7.99999C10.5832 7.83332 10.5207 7.68749 10.3957 7.56249L9.9165 7.08332C10.2915 7.08332 10.6734 7.1561 11.0623 7.30166C11.4512 7.44777 11.7846 7.65971 12.0623 7.93749C12.3401 8.21527 12.5521 8.53471 12.6982 8.89582C12.8437 9.25693 12.9165 9.61805 12.9165 9.97916C12.9165 10.1458 12.9062 10.3125 12.8857 10.4792C12.8646 10.6458 12.8193 10.8055 12.7498 10.9583C12.6804 11.1528 12.6771 11.3297 12.7398 11.4892C12.8021 11.6492 12.9165 11.7639 13.0832 11.8333ZM9.604 15.3958C9.729 15.5208 9.87484 15.5833 10.0415 15.5833C10.2082 15.5833 10.354 15.5208 10.479 15.3958L12.1248 13.7708C12.2082 13.6875 12.2498 13.5903 12.2498 13.4792C12.2498 13.368 12.2082 13.2708 12.1248 13.1875L10.479 11.5625C10.354 11.4514 10.2082 11.3922 10.0415 11.385C9.87484 11.3783 9.729 11.4375 9.604 11.5625C9.479 11.6875 9.4165 11.8333 9.4165 12C9.4165 12.1667 9.479 12.3125 9.604 12.4375L10.0623 12.8958C9.67345 12.9097 9.29512 12.8472 8.92734 12.7083C8.559 12.5694 8.229 12.3542 7.93734 12.0625C7.65956 11.7847 7.44761 11.4653 7.3015 11.1042C7.15595 10.743 7.08317 10.3819 7.08317 10.0208C7.08317 9.84027 7.09373 9.66999 7.11484 9.50999C7.13539 9.35054 7.18039 9.18749 7.24984 9.02082C7.30539 8.86805 7.31234 8.7186 7.27067 8.57249C7.229 8.42693 7.14567 8.31249 7.02067 8.22916C6.854 8.11805 6.67678 8.09027 6.489 8.14582C6.30178 8.20138 6.17345 8.31249 6.104 8.47916C5.99289 8.72916 5.91984 8.97555 5.88484 9.21832C5.85039 9.46166 5.83317 9.72221 5.83317 9.99999C5.83317 10.5278 5.93734 11.0486 6.14567 11.5625C6.354 12.0764 6.65956 12.5347 7.06234 12.9375C7.46512 13.3403 7.9165 13.6425 8.4165 13.8442C8.9165 14.0453 9.43039 14.1528 9.95817 14.1667L9.604 14.5208C9.479 14.6458 9.4165 14.7917 9.4165 14.9583C9.4165 15.125 9.479 15.2708 9.604 15.3958ZM9.99984 18.3333C8.84706 18.3333 7.76373 18.1144 6.74984 17.6767C5.73595 17.2394 4.854 16.6458 4.104 15.8958C3.354 15.1458 2.76039 14.2639 2.32317 13.25C1.88539 12.2361 1.6665 11.1528 1.6665 9.99999C1.6665 8.84721 1.88539 7.76388 2.32317 6.74999C2.76039 5.7361 3.354 4.85416 4.104 4.10416C4.854 3.35416 5.73595 2.76027 6.74984 2.32249C7.76373 1.88527 8.84706 1.66666 9.99984 1.66666C11.1526 1.66666 12.2359 1.88527 13.2498 2.32249C14.2637 2.76027 15.1457 3.35416 15.8957 4.10416C16.6457 4.85416 17.2393 5.7361 17.6765 6.74999C18.1143 7.76388 18.3332 8.84721 18.3332 9.99999C18.3332 11.1528 18.1143 12.2361 17.6765 13.25C17.2393 14.2639 16.6457 15.1458 15.8957 15.8958C15.1457 16.6458 14.2637 17.2394 13.2498 17.6767C12.2359 18.1144 11.1526 18.3333 9.99984 18.3333ZM9.99984 16.6667C11.8471 16.6667 13.4201 16.0175 14.719 14.7192C16.0173 13.4203 16.6665 11.8472 16.6665 9.99999C16.6665 8.15277 16.0173 6.57971 14.719 5.28082C13.4201 3.98249 11.8471 3.33332 9.99984 3.33332C8.15261 3.33332 6.57984 3.98249 5.2815 5.28082C3.98261 6.57971 3.33317 8.15277 3.33317 9.99999C3.33317 11.8472 3.98261 13.4203 5.2815 14.7192C6.57984 16.0175 8.15261 16.6667 9.99984 16.6667Z" fill="#55BEA4"/>
</svg>
