<svg width="67" height="49" viewBox="0 0 67 49" fill="none" xmlns="http://www.w3.org/2000/svg">
<path d="M36.3523 0.193687C35.58 0.391083 34.7797 0.908073 34.3865 1.47206C34.0496 1.96085 34.0215 2.10185 33.9794 3.62462C33.9232 5.48578 34.1198 5.27899 32.2664 5.38238C30.8061 5.46698 27.8575 5.85238 26.0884 6.20017C16.2458 8.12713 8.03185 12.8928 3.79151 19.1155C2.37338 21.2023 1.12375 24.0974 0.885053 25.921C0.814848 26.4474 0.84293 26.579 1.12375 26.8986C1.69942 27.5471 2.83673 27.7821 3.84767 27.4625C4.14253 27.3685 4.70417 26.9832 5.27984 26.4944C9.84312 22.5746 16.681 19.9239 24.4035 19.0967C26.2007 18.8993 30.8763 18.8899 32.6876 19.0779L33.8811 19.2001L33.9513 20.9861C34.0355 22.9788 34.1619 23.3266 35.0886 23.9376C36.0855 24.605 37.3492 24.7648 38.8235 24.4076C39.5817 24.2196 40.059 23.9282 46.4196 19.6795C53.4119 15.0172 53.9174 14.6318 54.3667 13.6166C54.6475 12.9868 54.6615 11.7367 54.3948 11.1539C53.8753 10.0071 53.7489 9.91309 46.6161 5.13799C39.2306 0.203087 39.1885 0.184288 37.6019 0.109089C37.1807 0.0902882 36.619 0.127888 36.3523 0.193687Z" fill="#007D5F"/>
<path d="M63.1708 21.6501C62.9373 21.744 62.2661 22.195 61.6971 22.6554C60.4569 23.6606 57.7576 25.3612 56.2547 26.094C52.0817 28.1233 47.2668 29.4386 41.9557 29.9836C40.0881 30.1809 35.2293 30.1903 33.3471 30.0023L32.1069 29.8802L32.0193 28.1891C31.9172 26.141 31.7275 25.7088 30.6916 25.0699C29.6118 24.3935 28.1528 24.2901 26.6207 24.7693C25.789 25.0323 24.8844 25.5866 18.8146 29.495C13.7954 32.7175 11.811 34.061 11.4754 34.4368C10.279 35.8085 10.2206 37.4527 11.3149 38.862C11.5338 39.1438 13.8829 40.7222 18.7125 43.8508C26.3143 48.755 26.5186 48.8584 28.1236 48.9711C29.7577 49.0745 31.1877 48.3886 31.7421 47.233C31.9756 46.7445 32.0339 46.3593 32.0339 45.2319C32.0339 43.6253 31.8442 43.7944 33.7848 43.6911C35.2439 43.6159 38.1767 43.2401 40.0297 42.9019C53.6138 40.3934 63.8857 32.9618 66.1765 23.9989C66.4683 22.8339 66.4245 22.4205 65.943 22.0071C65.3448 21.4904 64.017 21.3213 63.1708 21.6501Z" fill="#007D5F"/>
</svg>
