<svg width="20" height="20" viewBox="0 0 20 20" fill="none" xmlns="http://www.w3.org/2000/svg">
<path d="M10.0002 7.5C10.6632 7.5 11.2991 7.76339 11.7679 8.23223C12.2368 8.70107 12.5002 9.33696 12.5002 10C12.5002 10.663 12.2368 11.2989 11.7679 11.7678C11.2991 12.2366 10.6632 12.5 10.0002 12.5C9.33712 12.5 8.70124 12.2366 8.2324 11.7678C7.76355 11.2989 7.50016 10.663 7.50016 10C7.50016 9.33696 7.76355 8.70107 8.2324 8.23223C8.70124 7.76339 9.33712 7.5 10.0002 7.5ZM10.0002 3.75C14.1668 3.75 17.7252 6.34167 19.1668 10C17.7252 13.6583 14.1668 16.25 10.0002 16.25C5.8335 16.25 2.27516 13.6583 0.833496 10C2.27516 6.34167 5.8335 3.75 10.0002 3.75ZM2.65016 10C3.32371 11.3753 4.36958 12.534 5.6689 13.3444C6.96821 14.1548 8.46883 14.5844 10.0002 14.5844C11.5315 14.5844 13.0321 14.1548 14.3314 13.3444C15.6307 12.534 16.6766 11.3753 17.3502 10C16.6766 8.62474 15.6307 7.46604 14.3314 6.65562C13.0321 5.8452 11.5315 5.41557 10.0002 5.41557C8.46883 5.41557 6.96821 5.8452 5.6689 6.65562C4.36958 7.46604 3.32371 8.62474 2.65016 10Z" fill="#FF0000"/>
</svg>
