<svg width="20" height="20" viewBox="0 0 20 20" fill="none" xmlns="http://www.w3.org/2000/svg">
<path d="M12.7408 12.2309C12.6184 12.1909 11.8454 11.8424 12.3284 10.374H12.3215C13.5808 9.07704 14.5431 6.99012 14.5431 4.9355C14.5431 1.77627 12.4423 0.120117 10.0008 0.120117C7.55768 0.120117 5.46845 1.7755 5.46845 4.9355C5.46845 6.99858 6.42537 9.09396 7.69229 10.3878C8.18614 11.6832 7.30306 12.164 7.11845 12.2317C4.56152 13.1563 1.56152 14.8417 1.56152 16.5055V17.1293C1.56152 19.3963 5.95691 19.9117 10.0246 19.9117C14.0984 19.9117 18.4384 19.3963 18.4384 17.1293V16.5055C18.4384 14.7917 15.4238 13.1193 12.7408 12.2309Z" fill="#434343"/>
</svg>
