<svg width="22" height="22" viewBox="0 0 22 22" fill="none" xmlns="http://www.w3.org/2000/svg">
<path d="M4.58333 20.1666C4.07917 20.1666 3.64742 19.9872 3.28808 19.6285C2.92936 19.2692 2.75 18.8374 2.75 18.3333V5.49992C2.75 4.99575 2.92936 4.56431 3.28808 4.20559C3.64742 3.84625 4.07917 3.66659 4.58333 3.66659H5.5V1.83325H7.33333V3.66659H14.6667V1.83325H16.5V3.66659H17.4167C17.9208 3.66659 18.3526 3.84625 18.7119 4.20559C19.0706 4.56431 19.25 4.99575 19.25 5.49992V18.3333C19.25 18.8374 19.0706 19.2692 18.7119 19.6285C18.3526 19.9872 17.9208 20.1666 17.4167 20.1666H4.58333ZM4.58333 18.3333H17.4167V9.16659H4.58333V18.3333ZM4.58333 7.33325H17.4167V5.49992H4.58333V7.33325Z" fill="#434343"/>
</svg>
